<?xml version="1.0" standalone="no"?>
<!DOCTYPE svg PUBLIC "-//W3C//DTD SVG 20010904//EN"
 "http://www.w3.org/TR/2001/REC-SVG-20010904/DTD/svg10.dtd">
<svg version="1.0" xmlns="http://www.w3.org/2000/svg"
 width="150.000000pt" height="58.500000pt" viewBox="0 0 351.000000 138.000000"
 preserveAspectRatio="xMidYMid meet">

<g transform="translate(0.000000,138.000000) scale(0.100000,-0.100000)"
fill="#000000" stroke="none">
<path d="M761 1215 c-85 -36 -159 -69 -165 -75 -8 -8 -7 -10 4 -6 8 3 84 26
167 51 84 25 159 48 168 51 13 5 15 -54 15 -530 0 -295 -3 -536 -6 -536 -3 0
-110 34 -237 75 -127 41 -232 73 -233 72 -2 -2 103 -47 234 -100 l237 -97 363
147 362 148 -2 290 -3 290 -360 142 c-198 79 -367 143 -375 142 -8 0 -84 -29
-169 -64z m563 -190 l241 -94 3 -224 2 -224 -56 -22 c-31 -11 -58 -21 -60 -21
-2 0 -4 92 -4 204 l0 204 -47 16 -46 16 7 -239 6 -239 -47 -16 c-25 -9 -48
-16 -50 -16 -2 0 -4 78 -4 173 -1 94 -4 219 -8 276 l-6 104 -42 18 -43 18 0
-312 0 -313 -56 -27 c-31 -16 -57 -27 -59 -25 -1 2 -5 194 -9 426 l-7 424 22
-7 c12 -4 130 -49 263 -100z"/>
<path d="M573 1022 l-233 -97 0 -132 0 -133 195 0 195 0 0 -110 c0 -60 -3
-110 -7 -110 -5 0 -80 25 -168 56 -127 45 -166 64 -188 88 l-27 31 2 -68 3
-69 220 -84 c121 -47 230 -87 243 -90 l22 -6 0 226 0 226 -200 0 -201 0 3 57
3 58 140 57 c77 32 143 58 148 58 4 0 7 -25 7 -55 l0 -55 50 0 50 0 0 125 c0
94 -3 125 -12 124 -7 0 -118 -44 -245 -97z"/>
<path d="M1748 969 c-32 -18 -22 -47 20 -58 20 -6 47 -11 59 -11 60 0 98 -41
51 -54 -51 -13 -99 -6 -123 19 -17 16 -25 19 -25 10 0 -26 59 -48 112 -43 106
11 95 61 -16 78 -78 12 -86 15 -86 35 0 33 134 31 157 -2 7 -9 13 -12 13 -5 0
35 -117 58 -162 31z"/>
<path d="M1973 970 c-12 -5 -29 -20 -38 -34 -45 -68 60 -135 144 -91 51 26 55
72 10 109 -32 27 -74 33 -116 16z m111 -21 c15 -12 26 -30 26 -44 0 -30 -44
-65 -82 -65 -38 0 -84 24 -90 47 -17 66 85 110 146 62z"/>
<path d="M2570 971 l45 -6 6 -65 6 -65 1 67 2 67 43 4 c23 2 -1 4 -53 4 -63 0
-80 -2 -50 -6z"/>
<path d="M2795 970 c-28 -11 -48 -36 -42 -52 4 -8 6 -7 6 4 1 22 50 48 89 48
38 0 82 -35 82 -65 0 -30 -44 -65 -82 -65 -37 0 -85 25 -91 47 -4 16 -5 16 -6
1 -2 -25 47 -58 86 -58 41 0 88 22 98 47 7 15 9 13 15 -12 6 -23 8 -16 9 32
l1 63 85 -66 85 -65 -2 73 -2 73 -3 -63 -4 -62 -79 60 c-43 33 -81 60 -84 60
-3 0 -6 -12 -6 -27 -1 -24 -2 -26 -13 -13 -35 45 -92 61 -142 40z"/>
<path d="M2132 903 l-2 -73 98 2 97 2 -92 3 -92 4 -4 67 -3 67 -2 -72z"/>
<path d="M2332 919 c-3 -73 10 -84 95 -84 79 0 94 15 91 89 l-2 51 -3 -52 c-5
-63 -26 -83 -88 -83 -62 0 -83 20 -88 83 l-3 52 -2 -56z"/>
<path d="M2723 905 c0 -38 2 -53 4 -32 2 20 2 52 0 70 -2 17 -4 1 -4 -38z"/>
<path d="M1732 623 c2 -136 6 -187 15 -190 9 -3 13 31 15 139 l3 143 99 -148
99 -147 98 147 98 147 3 -139 c2 -100 6 -140 16 -143 9 -3 12 39 12 190 l0
193 -106 -160 c-59 -88 -110 -164 -114 -169 -5 -4 -58 67 -119 158 -61 91
-114 166 -116 166 -3 0 -4 -84 -3 -187z"/>
<path d="M2220 615 l0 -175 231 0 c180 0 230 3 227 13 -4 9 -58 13 -217 15
l-212 2 3 63 3 62 213 3 c164 2 213 5 209 15 -3 9 -59 13 -216 15 l-212 2 3
63 3 62 213 3 c164 2 213 5 209 15 -3 9 -62 13 -230 15 l-227 2 0 -175z"/>
<path d="M2718 784 c-5 -4 -8 -83 -8 -176 l0 -169 178 3 c178 3 179 3 215 31
36 27 49 57 26 57 -6 0 -27 -13 -46 -30 l-34 -30 -155 0 -155 0 3 143 3 142
146 0 c142 0 146 -1 187 -27 42 -28 62 -35 62 -20 0 11 -39 46 -70 63 -28 15
-339 27 -352 13z"/>
<path d="M3096 669 c-32 -25 -35 -70 -6 -99 27 -27 40 -25 40 5 0 16 -6 25
-15 25 -8 0 -15 5 -15 10 0 6 9 10 19 10 12 0 21 8 24 23 l4 22 8 -22 c4 -13
15 -23 25 -23 10 0 21 -6 23 -12 3 -7 6 -1 6 15 1 33 -31 67 -63 67 -13 0 -35
-9 -50 -21z"/>
</g>
</svg>
